<mxfile host="65bd71144e">
    <diagram id="74VhvunzpPNct_FgcFs_" name="Page-1">
        <mxGraphModel dx="610" dy="415" grid="1" gridSize="10" guides="1" tooltips="1" connect="1" arrows="1" fold="1" page="1" pageScale="1" pageWidth="827" pageHeight="1169" math="0" shadow="0">
            <root>
                <mxCell id="0"/>
                <mxCell id="1" parent="0"/>
                <mxCell id="8" value="&lt;font style=&quot;font-size: 10px;&quot;&gt;https://mths-icd2o-1-2023.github.io/ICD2O-Assignment-04-George-Khalil-29/&lt;/font&gt;" style="swimlane;whiteSpace=wrap;html=1;" vertex="1" parent="1">
                    <mxGeometry x="179" y="420" width="470" height="270" as="geometry"/>
                </mxCell>
            </root>
        </mxGraphModel>
    </diagram>
</mxfile>